<svg xmlns="http://www.w3.org/2000/svg" width="1280" height="720" viewBox="0 0 1280 720">  <defs>    <linearGradient id="sidebar" x1="0" y1="0" x2="0" y2="1">      <stop offset="0%" stop-color="#2d1f0e"/>      <stop offset="100%" stop-color="#3d2a12"/>    </linearGradient>    <linearGradient id="hero" x1="0" y1="0" x2="1" y2="0">      <stop offset="0%" stop-color="#2d1f0e"/>      <stop offset="100%" stop-color="#5c3d1e"/>    </linearGradient>    <linearGradient id="gold" x1="0" y1="0" x2="1" y2="0">      <stop offset="0%" stop-color="#c89b3c"/>      <stop offset="100%" stop-color="#dbb96a"/>    </linearGradient>  </defs>  <rect width="1280" height="720" fill="#f9f3e8"/>  <rect width="275" height="720" fill="url(#sidebar)"/>  <text x="26" y="58" font-family="Georgia,serif" font-size="26" font-weight="bold" fill="#f9f3e8">Lisea</text>  <text x="26" y="74" font-family="Arial,sans-serif" font-size="10" fill="#9b6e42" letter-spacing="2">SUIVI DE LECTURE</text>  <rect x="14" y="96" width="247" height="40" rx="10" fill="#c89b3c"/>  <text x="50" y="122" font-family="Arial,sans-serif" font-size="14" font-weight="bold" fill="#2d1f0e">📚  Bibliothèque</text>  <text x="50" y="162" font-family="Arial,sans-serif" font-size="14" fill="rgba(196,168,130,0.7)">⏱   Sessions</text>  <text x="50" y="202" font-family="Arial,sans-serif" font-size="14" fill="rgba(196,168,130,0.7)">📊  Statistiques</text>  <text x="50" y="242" font-family="Arial,sans-serif" font-size="14" fill="rgba(196,168,130,0.7)">🎯  Objectifs</text>  <line x1="14" y1="264" x2="261" y2="264" stroke="rgba(255,255,255,0.07)" stroke-width="1"/>  <rect x="14" y="278" width="247" height="88" rx="12" fill="rgba(255,255,255,0.05)" stroke="rgba(255,255,255,0.07)" stroke-width="1"/>  <text x="26" y="298" font-family="Arial,sans-serif" font-size="9" fill="#9b6e42" letter-spacing="1.5">AVANCEMENT GLOBAL</text>  <text x="26" y="320" font-family="Georgia,serif" font-size="16" fill="#dbb96a">1 283 pages lues</text>  <rect x="26" y="332" width="223" height="5" rx="3" fill="rgba(255,255,255,0.1)"/>  <rect x="26" y="332" width="148" height="5" rx="3" fill="url(#gold)"/>  <text x="26" y="354" font-family="Arial,sans-serif" font-size="10" fill="#9b6e42">66% de ta bibliothèque</text>  <rect x="14" y="378" width="247" height="52" rx="12" fill="rgba(200,155,60,0.12)" stroke="rgba(200,155,60,0.2)" stroke-width="1"/>  <text x="32" y="410" font-family="Georgia,serif" font-size="22" fill="#dbb96a">7</text>  <text x="62" y="403" font-family="Arial,sans-serif" font-size="12" fill="#9b6e42">🔥 jours consécutifs</text>  <rect x="295" y="24" width="961" height="160" rx="16" fill="url(#hero)"/>  <text x="330" y="62" font-family="Arial,sans-serif" font-size="10" fill="#dbb96a" letter-spacing="2">LISEA · SUIVI DE LECTURE</text>  <text x="330" y="100" font-family="Georgia,serif" font-size="32" fill="#f9f3e8">Chaque livre</text>  <text x="330" y="136" font-family="Georgia,serif" font-size="32" font-style="italic" fill="#dbb96a">raconte ta progression</text>  <rect x="1150" y="44" width="36" height="52" rx="4" fill="#c89b3c" opacity="0.8"/>  <rect x="1194" y="30" width="36" height="66" rx="4" fill="#a07828" opacity="0.9"/>  <rect x="1114" y="56" width="30" height="40" rx="4" fill="#dbb96a" opacity="0.7"/>  <rect x="330" y="148" width="148" height="28" rx="14" fill="#c89b3c"/>  <text x="358" y="167" font-family="Arial,sans-serif" font-size="12" font-weight="bold" fill="#2d1f0e">🔍 Chercher un livre</text>  <rect x="490" y="148" width="120" height="28" rx="14" fill="transparent" stroke="rgba(255,255,255,0.25)" stroke-width="1"/>  <text x="520" y="167" font-family="Arial,sans-serif" font-size="12" fill="#f9f3e8">Charger la démo</text>  <rect x="295" y="200" width="228" height="76" rx="12" fill="white" stroke="rgba(45,31,14,0.08)" stroke-width="1"/>  <text x="318" y="228" font-family="Arial,sans-serif" font-size="20">📚</text>  <text x="316" y="248" font-family="Arial,sans-serif" font-size="10" fill="#9b6e42" letter-spacing="1">TOTAL</text>  <text x="316" y="268" font-family="Georgia,serif" font-size="28" font-weight="bold" fill="#2d1f0e">5</text>  <rect x="533" y="200" width="228" height="76" rx="12" fill="white" stroke="rgba(45,31,14,0.08)" stroke-width="1"/>  <text x="556" y="228" font-family="Arial,sans-serif" font-size="20">📖</text>  <text x="554" y="248" font-family="Arial,sans-serif" font-size="10" fill="#9b6e42" letter-spacing="1">EN COURS</text>  <text x="554" y="268" font-family="Georgia,serif" font-size="28" font-weight="bold" fill="#2d1f0e">2</text>  <rect x="771" y="200" width="228" height="76" rx="12" fill="white" stroke="rgba(45,31,14,0.08)" stroke-width="1"/>  <text x="794" y="228" font-family="Arial,sans-serif" font-size="20">✅</text>  <text x="792" y="248" font-family="Arial,sans-serif" font-size="10" fill="#9b6e42" letter-spacing="1">TERMINÉS</text>  <text x="792" y="268" font-family="Georgia,serif" font-size="28" font-weight="bold" fill="#2d1f0e">3</text>  <rect x="1009" y="200" width="247" height="76" rx="12" fill="white" stroke="rgba(45,31,14,0.08)" stroke-width="1"/>  <text x="1032" y="228" font-family="Arial,sans-serif" font-size="20">📄</text>  <text x="1030" y="248" font-family="Arial,sans-serif" font-size="10" fill="#9b6e42" letter-spacing="1">PAGES LUES</text>  <text x="1030" y="268" font-family="Georgia,serif" font-size="28" font-weight="bold" fill="#2d1f0e">1 283</text>  <rect x="295" y="292" width="961" height="110" rx="14" fill="white" stroke="rgba(45,31,14,0.08)" stroke-width="1"/>  <text x="322" y="320" font-family="Georgia,serif" font-size="17" fill="#2d1f0e">Trouver un livre</text>  <text x="322" y="336" font-family="Arial,sans-serif" font-size="11" fill="#9b6e42">Raccourci global : Ctrl+K</text>  <rect x="322" y="350" width="820" height="38" rx="19" fill="#f0e8d5" stroke="rgba(45,31,14,0.12)" stroke-width="1.5"/>  <text x="350" y="374" font-family="Arial,sans-serif" font-size="14" fill="#9b6e42">Dune, Camus, Le Petit Prince…</text>  <rect x="1092" y="350" width="120" height="38" rx="19" fill="#c89b3c"/>  <text x="1116" y="374" font-family="Arial,sans-serif" font-size="13" font-weight="bold" fill="#2d1f0e">🔍 Chercher</text>  <rect x="295" y="418" width="620" height="280" rx="14" fill="white" stroke="rgba(45,31,14,0.08)" stroke-width="1"/>  <rect x="316" y="434" width="220" height="32" rx="16" fill="#f0e8d5" stroke="rgba(45,31,14,0.1)" stroke-width="1"/>  <text x="334" y="455" font-family="Arial,sans-serif" font-size="12" fill="#9b6e42">Chercher dans ma bibliothèque…</text>  <rect x="316" y="478" width="578" height="58" rx="10" fill="#f0e8d5"/>  <rect x="326" y="488" width="38" height="38" rx="5" fill="#e8d5a8"/>  <text x="337" y="512" font-family="Georgia,serif" font-size="11" font-weight="bold" fill="#a07828">Du</text>  <text x="374" y="502" font-family="Georgia,serif" font-size="14" font-weight="bold" fill="#2d1f0e">Dune</text>  <text x="374" y="518" font-family="Arial,sans-serif" font-size="11" fill="#9b6e42">Frank Herbert · 1965 · 688 pages</text>  <rect x="374" y="524" width="50" height="14" rx="7" fill="rgba(200,155,60,0.15)"/>  <text x="383" y="535" font-family="Arial,sans-serif" font-size="9" font-weight="bold" fill="#a07828">EN COURS</text>  <text x="536" y="499" font-family="Arial,sans-serif" font-size="12" fill="#c89b3c">★★★★★</text>  <rect x="316" y="546" width="578" height="58" rx="10" fill="#f0e8d5"/>  <rect x="326" y="556" width="38" height="38" rx="5" fill="#e0d4b8"/>  <text x="336" y="580" font-family="Georgia,serif" font-size="10" font-weight="bold" fill="#a07828">LE</text>  <text x="374" y="570" font-family="Georgia,serif" font-size="14" font-weight="bold" fill="#2d1f0e">Le Petit Prince</text>  <text x="374" y="586" font-family="Arial,sans-serif" font-size="11" fill="#9b6e42">Antoine de Saint-Exupéry · 1943 · 96 pages</text>  <text x="536" y="567" font-family="Arial,sans-serif" font-size="12" fill="#c89b3c">★★★★★</text>  <rect x="316" y="614" width="578" height="58" rx="10" fill="#f0e8d5"/>  <text x="374" y="638" font-family="Georgia,serif" font-size="14" font-weight="bold" fill="#2d1f0e">1984</text>  <text x="374" y="654" font-family="Arial,sans-serif" font-size="11" fill="#9b6e42">George Orwell · 1949 · 328 pages</text>  <rect x="374" y="660" width="55" height="14" rx="7" fill="rgba(67,122,34,0.13)"/>  <text x="382" y="671" font-family="Arial,sans-serif" font-size="9" font-weight="bold" fill="#3a6818">TERMINÉ</text>  <text x="536" y="635" font-family="Arial,sans-serif" font-size="12" fill="#c89b3c">★★★★★</text>  <rect x="927" y="418" width="329" height="280" rx="14" fill="white" stroke="rgba(45,31,14,0.08)" stroke-width="1"/>  <text x="952" y="447" font-family="Georgia,serif" font-size="16" fill="#2d1f0e">Mettre à jour</text>  <rect x="952" y="460" width="284" height="36" rx="8" fill="#f0e8d5" stroke="rgba(45,31,14,0.1)" stroke-width="1"/>  <text x="966" y="483" font-family="Arial,sans-serif" font-size="12" fill="#2d1f0e">Dune</text>  <text x="952" y="520" font-family="Arial,sans-serif" font-size="10" fill="#9b6e42" letter-spacing="1">PAGE ACTUELLE</text>  <rect x="952" y="528" width="132" height="32" rx="8" fill="#f0e8d5" stroke="rgba(45,31,14,0.1)" stroke-width="1"/>  <text x="966" y="549" font-family="Arial,sans-serif" font-size="13" fill="#2d1f0e">214</text>  <text x="952" y="578" font-family="Arial,sans-serif" font-size="10" fill="#9b6e42" letter-spacing="1">NOTE</text>  <text x="952" y="602" font-family="Arial,sans-serif" font-size="20" fill="#c89b3c">★★★★★</text>  <rect x="952" y="676" width="284" height="36" rx="18" fill="#2d1f0e"/>  <text x="1060" y="699" font-family="Arial,sans-serif" font-size="13" font-weight="bold" fill="#f9f3e8">Enregistrer</text></svg>