<svg xmlns="http://www.w3.org/2000/svg" width="1280" height="720" viewBox="0 0 1280 720">  <defs>    <linearGradient id="sb2" x1="0" y1="0" x2="0" y2="1"><stop offset="0%" stop-color="#2d1f0e"/><stop offset="100%" stop-color="#3d2a12"/></linearGradient>    <linearGradient id="bar" x1="0" y1="0" x2="0" y2="1"><stop offset="0%" stop-color="#dbb96a"/><stop offset="100%" stop-color="#a07828"/></linearGradient>  </defs>  <rect width="1280" height="720" fill="#f9f3e8"/>  <rect width="275" height="720" fill="url(#sb2)"/>  <text x="26" y="58" font-family="Georgia,serif" font-size="26" font-weight="bold" fill="#f9f3e8">Lisea</text>  <text x="26" y="74" font-family="Arial,sans-serif" font-size="10" fill="#9b6e42" letter-spacing="2">SUIVI DE LECTURE</text>  <text x="50" y="122" font-family="Arial,sans-serif" font-size="14" fill="rgba(196,168,130,0.7)">📚  Bibliothèque</text>  <text x="50" y="162" font-family="Arial,sans-serif" font-size="14" fill="rgba(196,168,130,0.7)">⏱   Sessions</text>  <rect x="14" y="176" width="247" height="40" rx="10" fill="#c89b3c"/>  <text x="50" y="202" font-family="Arial,sans-serif" font-size="14" font-weight="bold" fill="#2d1f0e">📊  Statistiques</text>  <text x="50" y="242" font-family="Arial,sans-serif" font-size="14" fill="rgba(196,168,130,0.7)">🎯  Objectifs</text>  <rect x="295" y="24" width="300" height="90" rx="14" fill="white" stroke="rgba(45,31,14,0.08)" stroke-width="1"/>  <text x="430" y="62" font-family="Georgia,serif" font-size="36" fill="#c89b3c" text-anchor="middle">47</text>  <text x="430" y="88" font-family="Arial,sans-serif" font-size="11" fill="#9b6e42" text-anchor="middle" letter-spacing="1">PAGES / HEURE</text>  <rect x="609" y="24" width="300" height="90" rx="14" fill="white" stroke="rgba(45,31,14,0.08)" stroke-width="1"/>  <text x="759" y="62" font-family="Georgia,serif" font-size="36" fill="#c89b3c" text-anchor="middle">34</text>  <text x="759" y="88" font-family="Arial,sans-serif" font-size="11" fill="#9b6e42" text-anchor="middle" letter-spacing="1">PAGES / JOUR</text>  <rect x="923" y="24" width="333" height="90" rx="14" fill="white" stroke="rgba(45,31,14,0.08)" stroke-width="1"/>  <text x="1089" y="62" font-family="Georgia,serif" font-size="36" fill="#c89b3c" text-anchor="middle">27h</text>  <text x="1089" y="88" font-family="Arial,sans-serif" font-size="11" fill="#9b6e42" text-anchor="middle" letter-spacing="1">TEMPS TOTAL</text>  <rect x="295" y="132" width="600" height="240" rx="14" fill="white" stroke="rgba(45,31,14,0.08)" stroke-width="1"/>  <text x="322" y="162" font-family="Georgia,serif" font-size="17" fill="#2d1f0e">Pages / mois</text>  <rect x="335" y="290" width="60" height="50" rx="5" fill="url(#bar)" opacity="0.5"/>  <text x="365" y="288" font-family="Arial,sans-serif" font-size="10" fill="#9b6e42" text-anchor="middle">180</text>  <text x="365" y="360" font-family="Arial,sans-serif" font-size="10" fill="#9b6e42" text-anchor="middle">déc</text>  <rect x="420" y="250" width="60" height="90" rx="5" fill="url(#bar)" opacity="0.65"/>  <text x="450" y="248" font-family="Arial,sans-serif" font-size="10" fill="#9b6e42" text-anchor="middle">320</text>  <text x="450" y="360" font-family="Arial,sans-serif" font-size="10" fill="#9b6e42" text-anchor="middle">jan</text>  <rect x="505" y="220" width="60" height="120" rx="5" fill="url(#bar)" opacity="0.75"/>  <text x="535" y="218" font-family="Arial,sans-serif" font-size="10" fill="#9b6e42" text-anchor="middle">430</text>  <text x="535" y="360" font-family="Arial,sans-serif" font-size="10" fill="#9b6e42" text-anchor="middle">fév</text>  <rect x="590" y="195" width="60" height="145" rx="5" fill="url(#bar)" opacity="0.85"/>  <text x="620" y="193" font-family="Arial,sans-serif" font-size="10" fill="#9b6e42" text-anchor="middle">520</text>  <text x="620" y="360" font-family="Arial,sans-serif" font-size="10" fill="#9b6e42" text-anchor="middle">mar</text>  <rect x="675" y="210" width="60" height="130" rx="5" fill="url(#bar)" opacity="0.80"/>  <text x="705" y="208" font-family="Arial,sans-serif" font-size="10" fill="#9b6e42" text-anchor="middle">465</text>  <text x="705" y="360" font-family="Arial,sans-serif" font-size="10" fill="#9b6e42" text-anchor="middle">avr</text>  <rect x="760" y="175" width="60" height="165" rx="5" fill="url(#bar)"/>  <text x="790" y="173" font-family="Arial,sans-serif" font-size="10" fill="#c89b3c" text-anchor="middle" font-weight="bold">590</text>  <text x="790" y="360" font-family="Arial,sans-serif" font-size="10" fill="#9b6e42" text-anchor="middle">mai</text>  <rect x="909" y="132" width="347" height="240" rx="14" fill="white" stroke="rgba(45,31,14,0.08)" stroke-width="1"/>  <text x="936" y="162" font-family="Georgia,serif" font-size="17" fill="#2d1f0e">Top progression</text>  <rect x="930" y="178" width="305" height="36" rx="8" fill="#f0e8d5"/>  <text x="946" y="201" font-family="Georgia,serif" font-size="18" fill="#c89b3c">1</text>  <text x="970" y="196" font-family="Arial,sans-serif" font-size="13" font-weight="bold" fill="#2d1f0e">Dune</text>  <text x="970" y="210" font-family="Arial,sans-serif" font-size="10" fill="#9b6e42">31% · 214/688 p.</text>  <rect x="930" y="224" width="305" height="36" rx="8" fill="#f0e8d5"/>  <text x="946" y="247" font-family="Georgia,serif" font-size="18" fill="#c89b3c">2</text>  <text x="970" y="242" font-family="Arial,sans-serif" font-size="13" font-weight="bold" fill="#2d1f0e">Le Petit Prince</text>  <text x="970" y="256" font-family="Arial,sans-serif" font-size="10" fill="#9b6e42">57% · 55/96 p.</text>  <rect x="930" y="270" width="305" height="36" rx="8" fill="#f0e8d5"/>  <text x="946" y="293" font-family="Georgia,serif" font-size="18" fill="#c89b3c">3</text>  <text x="970" y="288" font-family="Arial,sans-serif" font-size="13" font-weight="bold" fill="#2d1f0e">1984</text>  <text x="970" y="302" font-family="Arial,sans-serif" font-size="10" fill="#9b6e42">100% · 328/328 p.</text>  <rect x="295" y="388" width="961" height="308" rx="14" fill="white" stroke="rgba(45,31,14,0.08)" stroke-width="1"/>  <text x="322" y="418" font-family="Georgia,serif" font-size="17" fill="#2d1f0e">Activité annuelle — Heatmap</text>  <text x="322" y="438" font-family="Arial,sans-serif" font-size="11" fill="#9b6e42">Pages lues par jour sur les 12 derniers mois</text>  <text x="322" y="462" font-family="Arial,sans-serif" font-size="9" fill="#9b6e42">mai   jun   jul   aoû   sep   oct   nov   déc   jan   fév   mar   avr   mai</text>  <g fill="#e8dcc5">    <rect x="322" y="470" width="11" height="11" rx="2"/><rect x="337" y="470" width="11" height="11" rx="2"/><rect x="352" y="470" width="11" height="11" rx="2"/><rect x="367" y="470" width="11" height="11" rx="2"/><rect x="382" y="470" width="11" height="11" rx="2"/><rect x="397" y="470" width="11" height="11" rx="2"/><rect x="412" y="470" width="11" height="11" rx="2"/><rect x="427" y="470" width="11" height="11" rx="2"/><rect x="442" y="470" width="11" height="11" rx="2"/><rect x="457" y="470" width="11" height="11" rx="2"/><rect x="472" y="470" width="11" height="11" rx="2"/><rect x="487" y="470" width="11" height="11" rx="2"/><rect x="502" y="470" width="11" height="11" rx="2"/><rect x="517" y="470" width="11" height="11" rx="2"/><rect x="532" y="470" width="11" height="11" rx="2"/><rect x="547" y="470" width="11" height="11" rx="2"/><rect x="562" y="470" width="11" height="11" rx="2"/><rect x="577" y="470" width="11" height="11" rx="2"/><rect x="592" y="470" width="11" height="11" rx="2"/><rect x="607" y="470" width="11" height="11" rx="2"/><rect x="622" y="470" width="11" height="11" rx="2"/><rect x="637" y="470" width="11" height="11" rx="2"/><rect x="652" y="470" width="11" height="11" rx="2"/><rect x="667" y="470" width="11" height="11" rx="2"/><rect x="682" y="470" width="11" height="11" rx="2"/><rect x="697" y="470" width="11" height="11" rx="2"/><rect x="712" y="470" width="11" height="11" rx="2"/><rect x="727" y="470" width="11" height="11" rx="2"/><rect x="742" y="470" width="11" height="11" rx="2"/><rect x="757" y="470" width="11" height="11" rx="2"/><rect x="772" y="470" width="11" height="11" rx="2"/><rect x="787" y="470" width="11" height="11" rx="2"/><rect x="802" y="470" width="11" height="11" rx="2"/><rect x="817" y="470" width="11" height="11" rx="2"/><rect x="832" y="470" width="11" height="11" rx="2"/><rect x="847" y="470" width="11" height="11" rx="2"/><rect x="862" y="470" width="11" height="11" rx="2"/><rect x="877" y="470" width="11" height="11" rx="2"/><rect x="892" y="470" width="11" height="11" rx="2"/><rect x="907" y="470" width="11" height="11" rx="2"/><rect x="922" y="470" width="11" height="11" rx="2"/><rect x="937" y="470" width="11" height="11" rx="2"/><rect x="952" y="470" width="11" height="11" rx="2"/><rect x="967" y="470" width="11" height="11" rx="2"/><rect x="982" y="470" width="11" height="11" rx="2"/><rect x="997" y="470" width="11" height="11" rx="2"/><rect x="1012" y="470" width="11" height="11" rx="2"/><rect x="1027" y="470" width="11" height="11" rx="2"/><rect x="1042" y="470" width="11" height="11" rx="2"/><rect x="1057" y="470" width="11" height="11" rx="2"/><rect x="1072" y="470" width="11" height="11" rx="2"/><rect x="1087" y="470" width="11" height="11" rx="2"/><rect x="1102" y="470" width="11" height="11" rx="2"/><rect x="1117" y="470" width="11" height="11" rx="2"/><rect x="1132" y="470" width="11" height="11" rx="2"/><rect x="1147" y="470" width="11" height="11" rx="2"/><rect x="1162" y="470" width="11" height="11" rx="2"/><rect x="1177" y="470" width="11" height="11" rx="2"/><rect x="1192" y="470" width="11" height="11" rx="2"/>  </g>  <rect x="562" y="470" width="11" height="11" rx="2" fill="rgba(200,155,60,0.4)"/><rect x="577" y="470" width="11" height="11" rx="2" fill="rgba(200,155,60,0.6)"/><rect x="592" y="470" width="11" height="11" rx="2" fill="rgba(200,155,60,0.9)"/><rect x="607" y="470" width="11" height="11" rx="2" fill="#c89b3c"/><rect x="622" y="470" width="11" height="11" rx="2" fill="rgba(200,155,60,0.7)"/><rect x="842" y="485" width="11" height="11" rx="2" fill="#c89b3c"/><rect x="857" y="485" width="11" height="11" rx="2" fill="#c89b3c"/><rect x="1052" y="500" width="11" height="11" rx="2" fill="rgba(200,155,60,0.5)"/><rect x="1067" y="500" width="11" height="11" rx="2" fill="rgba(200,155,60,0.8)"/><rect x="1082" y="500" width="11" height="11" rx="2" fill="#c89b3c"/><rect x="1142" y="515" width="11" height="11" rx="2" fill="#c89b3c"/><rect x="1157" y="515" width="11" height="11" rx="2" fill="#c89b3c"/><rect x="1172" y="530" width="11" height="11" rx="2" fill="rgba(200,155,60,0.8)"/>  <text x="322" y="632" font-family="Arial,sans-serif" font-size="10" fill="#9b6e42">Moins</text>  <rect x="364" y="622" width="11" height="11" rx="2" fill="#e8dcc5"/><rect x="379" y="622" width="11" height="11" rx="2" fill="rgba(200,155,60,0.25)"/><rect x="394" y="622" width="11" height="11" rx="2" fill="rgba(200,155,60,0.5)"/><rect x="409" y="622" width="11" height="11" rx="2" fill="rgba(200,155,60,0.75)"/><rect x="424" y="622" width="11" height="11" rx="2" fill="#c89b3c"/>  <text x="442" y="632" font-family="Arial,sans-serif" font-size="10" fill="#9b6e42">Plus</text></svg>