<svg xmlns="http://www.w3.org/2000/svg" width="1280" height="720" viewBox="0 0 1280 720">  <defs>    <linearGradient id="sb3" x1="0" y1="0" x2="0" y2="1"><stop offset="0%" stop-color="#2d1f0e"/><stop offset="100%" stop-color="#3d2a12"/></linearGradient>    <linearGradient id="gld3" x1="0" y1="0" x2="1" y2="0"><stop offset="0%" stop-color="#c89b3c"/><stop offset="100%" stop-color="#dbb96a"/></linearGradient>  </defs>  <rect width="1280" height="720" fill="#f9f3e8"/>  <rect width="275" height="720" fill="url(#sb3)"/>  <text x="26" y="58" font-family="Georgia,serif" font-size="26" font-weight="bold" fill="#f9f3e8">Lisea</text>  <text x="26" y="74" font-family="Arial,sans-serif" font-size="10" fill="#9b6e42" letter-spacing="2">SUIVI DE LECTURE</text>  <text x="50" y="122" font-family="Arial,sans-serif" font-size="14" fill="rgba(196,168,130,0.7)">📚  Bibliothèque</text>  <rect x="14" y="136" width="247" height="40" rx="10" fill="#c89b3c"/>  <text x="50" y="162" font-family="Arial,sans-serif" font-size="14" font-weight="bold" fill="#2d1f0e">⏱   Sessions</text>  <text x="50" y="202" font-family="Arial,sans-serif" font-size="14" fill="rgba(196,168,130,0.7)">📊  Statistiques</text>  <text x="50" y="242" font-family="Arial,sans-serif" font-size="14" fill="rgba(196,168,130,0.7)">🎯  Objectifs</text>  <rect x="295" y="24" width="961" height="130" rx="14" fill="white" stroke="rgba(45,31,14,0.08)" stroke-width="1"/>  <text x="322" y="54" font-family="Georgia,serif" font-size="17" fill="#2d1f0e">Timer de lecture</text>  <text x="322" y="108" font-family="Georgia,serif" font-size="48" fill="#c89b3c" letter-spacing="4">00:27:43</text>  <text x="322" y="130" font-family="Arial,sans-serif" font-size="11" fill="#9b6e42">En cours…</text>  <rect x="730" y="68" width="130" height="40" rx="20" fill="#c89b3c"/>  <text x="755" y="93" font-family="Arial,sans-serif" font-size="14" font-weight="bold" fill="#2d1f0e">▶ Démarrer</text>  <rect x="876" y="68" width="100" height="40" rx="20" fill="#f0e8d5" stroke="rgba(45,31,14,0.12)" stroke-width="1"/>  <text x="900" y="93" font-family="Arial,sans-serif" font-size="14" fill="#2d1f0e">⏸ Pause</text>  <rect x="992" y="68" width="44" height="44" rx="22" fill="#f0e8d5" stroke="rgba(45,31,14,0.12)" stroke-width="1"/>  <text x="1007" y="95" font-family="Arial,sans-serif" font-size="16" fill="#9b6e42">↺</text>  <rect x="295" y="170" width="961" height="130" rx="14" fill="white" stroke="rgba(45,31,14,0.08)" stroke-width="1"/>  <text x="322" y="200" font-family="Georgia,serif" font-size="17" fill="#2d1f0e">Enregistrer une session</text>  <rect x="322" y="216" width="200" height="36" rx="8" fill="#f0e8d5" stroke="rgba(45,31,14,0.1)" stroke-width="1"/>  <text x="336" y="239" font-family="Arial,sans-serif" font-size="12" fill="#2d1f0e">Dune</text>  <rect x="534" y="216" width="130" height="36" rx="8" fill="#f0e8d5" stroke="rgba(45,31,14,0.1)" stroke-width="1"/>  <text x="548" y="239" font-family="Arial,sans-serif" font-size="14" fill="#2d1f0e">35</text>  <rect x="676" y="216" width="130" height="36" rx="8" fill="#f0e8d5" stroke="rgba(45,31,14,0.1)" stroke-width="1"/>  <text x="690" y="239" font-family="Arial,sans-serif" font-size="14" fill="#2d1f0e">28</text>  <rect x="818" y="216" width="140" height="36" rx="8" fill="#f0e8d5" stroke="rgba(45,31,14,0.1)" stroke-width="1"/>  <text x="832" y="239" font-family="Arial,sans-serif" font-size="12" fill="#9b6e42">2026-05-16</text>  <rect x="970" y="212" width="160" height="42" rx="21" fill="#2d1f0e"/>  <text x="1014" y="238" font-family="Arial,sans-serif" font-size="13" font-weight="bold" fill="#f9f3e8">+ Ajouter</text>  <rect x="295" y="316" width="961" height="380" rx="14" fill="white" stroke="rgba(45,31,14,0.08)" stroke-width="1"/>  <text x="322" y="346" font-family="Georgia,serif" font-size="17" fill="#2d1f0e">Historique</text>  <rect x="322" y="362" width="905" height="52" rx="10" fill="#f0e8d5"/>  <text x="342" y="385" font-family="Arial,sans-serif" font-size="14" font-weight="bold" fill="#2d1f0e">Dune</text>  <text x="342" y="402" font-family="Arial,sans-serif" font-size="11" fill="#9b6e42">16 mai 2026 · 50 min</text>  <text x="1120" y="391" font-family="Georgia,serif" font-size="20" fill="#c89b3c">+35 p.</text>  <rect x="322" y="424" width="905" height="52" rx="10" fill="#f0e8d5"/>  <text x="342" y="447" font-family="Arial,sans-serif" font-size="14" font-weight="bold" fill="#2d1f0e">Le Petit Prince</text>  <text x="342" y="464" font-family="Arial,sans-serif" font-size="11" fill="#9b6e42">16 mai 2026 · 25 min</text>  <text x="1120" y="453" font-family="Georgia,serif" font-size="20" fill="#c89b3c">+20 p.</text>  <rect x="322" y="486" width="905" height="52" rx="10" fill="#f0e8d5"/>  <text x="342" y="509" font-family="Arial,sans-serif" font-size="14" font-weight="bold" fill="#2d1f0e">Dune</text>  <text x="342" y="526" font-family="Arial,sans-serif" font-size="11" fill="#9b6e42">15 mai 2026 · 40 min</text>  <text x="1120" y="515" font-family="Georgia,serif" font-size="20" fill="#c89b3c">+28 p.</text>  <rect x="322" y="548" width="905" height="52" rx="10" fill="#f0e8d5"/>  <text x="342" y="571" font-family="Arial,sans-serif" font-size="14" font-weight="bold" fill="#2d1f0e">L&apos;Étranger</text>  <text x="342" y="588" font-family="Arial,sans-serif" font-size="11" fill="#9b6e42">14 mai 2026 · 60 min</text>  <text x="1120" y="577" font-family="Georgia,serif" font-size="20" fill="#c89b3c">+45 p.</text>  <rect x="322" y="610" width="905" height="52" rx="10" fill="#f0e8d5"/>  <text x="342" y="633" font-family="Arial,sans-serif" font-size="14" font-weight="bold" fill="#2d1f0e">1984</text>  <text x="342" y="650" font-family="Arial,sans-serif" font-size="11" fill="#9b6e42">13 mai 2026 · 80 min</text>  <text x="1120" y="639" font-family="Georgia,serif" font-size="20" fill="#c89b3c">+60 p.</text></svg>