<svg xmlns="http://www.w3.org/2000/svg" width="1280" height="720" viewBox="0 0 1280 720">  <defs>    <linearGradient id="sb4" x1="0" y1="0" x2="0" y2="1"><stop offset="0%" stop-color="#110e0a"/><stop offset="100%" stop-color="#1a1410"/></linearGradient>    <linearGradient id="hero4" x1="0" y1="0" x2="1" y2="0"><stop offset="0%" stop-color="#110e0a"/><stop offset="100%" stop-color="#2a1e10"/></linearGradient>  </defs>  <rect width="1280" height="720" fill="#1a1410"/>  <rect width="275" height="720" fill="url(#sb4)"/>  <line x1="275" y1="0" x2="275" y2="720" stroke="rgba(255,255,255,0.06)" stroke-width="1"/>  <text x="26" y="58" font-family="Georgia,serif" font-size="26" font-weight="bold" fill="#e8dfd0">Lisea</text>  <text x="26" y="74" font-family="Arial,sans-serif" font-size="10" fill="#7a6040" letter-spacing="2">SUIVI DE LECTURE</text>  <rect x="14" y="96" width="247" height="40" rx="10" fill="#dbb96a"/>  <text x="50" y="122" font-family="Arial,sans-serif" font-size="14" font-weight="bold" fill="#1a1410">📚  Bibliothèque</text>  <text x="50" y="162" font-family="Arial,sans-serif" font-size="14" fill="rgba(196,168,130,0.45)">⏱   Sessions</text>  <text x="50" y="202" font-family="Arial,sans-serif" font-size="14" fill="rgba(196,168,130,0.45)">📊  Statistiques</text>  <text x="50" y="242" font-family="Arial,sans-serif" font-size="14" fill="rgba(196,168,130,0.45)">🎯  Objectifs</text>  <line x1="14" y1="264" x2="261" y2="264" stroke="rgba(255,255,255,0.05)" stroke-width="1"/>  <rect x="14" y="278" width="247" height="88" rx="12" fill="rgba(255,255,255,0.04)" stroke="rgba(255,255,255,0.07)" stroke-width="1"/>  <text x="26" y="298" font-family="Arial,sans-serif" font-size="9" fill="#7a6040" letter-spacing="1.5">AVANCEMENT GLOBAL</text>  <text x="26" y="320" font-family="Georgia,serif" font-size="16" fill="#e8cc88">1 283 pages lues</text>  <rect x="26" y="332" width="223" height="5" rx="3" fill="rgba(255,255,255,0.07)"/>  <rect x="26" y="332" width="148" height="5" rx="3" fill="#dbb96a"/>  <text x="26" y="354" font-family="Arial,sans-serif" font-size="10" fill="#7a6040">66% de ta bibliothèque</text>  <rect x="14" y="378" width="247" height="52" rx="12" fill="rgba(200,155,60,0.1)" stroke="rgba(200,155,60,0.18)" stroke-width="1"/>  <text x="32" y="410" font-family="Georgia,serif" font-size="22" fill="#e8cc88">7</text>  <text x="62" y="403" font-family="Arial,sans-serif" font-size="12" fill="#7a6040">🔥 jours consécutifs</text>  <rect x="295" y="24" width="961" height="160" rx="16" fill="url(#hero4)"/>  <text x="330" y="62" font-family="Arial,sans-serif" font-size="10" fill="#e8cc88" letter-spacing="2">LISEA · SUIVI DE LECTURE</text>  <text x="330" y="100" font-family="Georgia,serif" font-size="32" fill="#e8dfd0">Chaque livre</text>  <text x="330" y="136" font-family="Georgia,serif" font-size="32" font-style="italic" fill="#e8cc88">raconte ta progression</text>  <rect x="1150" y="44" width="36" height="52" rx="4" fill="#dbb96a" opacity="0.6"/>  <rect x="1194" y="30" width="36" height="66" rx="4" fill="#c89b3c" opacity="0.7"/>  <rect x="330" y="148" width="148" height="28" rx="14" fill="#dbb96a"/>  <text x="356" y="167" font-family="Arial,sans-serif" font-size="12" font-weight="bold" fill="#1a1410">🔍 Chercher un livre</text>  <rect x="490" y="148" width="120" height="28" rx="14" fill="transparent" stroke="rgba(255,255,255,0.15)" stroke-width="1"/>  <text x="520" y="167" font-family="Arial,sans-serif" font-size="12" fill="#e8dfd0">Charger la démo</text>  <rect x="295" y="200" width="228" height="76" rx="12" fill="#211c17" stroke="rgba(255,255,255,0.07)" stroke-width="1"/>  <text x="316" y="248" font-family="Arial,sans-serif" font-size="10" fill="#7a6040" letter-spacing="1">TOTAL</text>  <text x="316" y="268" font-family="Georgia,serif" font-size="28" font-weight="bold" fill="#e8dfd0">5</text>  <rect x="533" y="200" width="228" height="76" rx="12" fill="#211c17" stroke="rgba(255,255,255,0.07)" stroke-width="1"/>  <text x="554" y="248" font-family="Arial,sans-serif" font-size="10" fill="#7a6040" letter-spacing="1">EN COURS</text>  <text x="554" y="268" font-family="Georgia,serif" font-size="28" font-weight="bold" fill="#e8dfd0">2</text>  <rect x="771" y="200" width="228" height="76" rx="12" fill="#211c17" stroke="rgba(255,255,255,0.07)" stroke-width="1"/>  <text x="792" y="248" font-family="Arial,sans-serif" font-size="10" fill="#7a6040" letter-spacing="1">TERMINÉS</text>  <text x="792" y="268" font-family="Georgia,serif" font-size="28" font-weight="bold" fill="#e8dfd0">3</text>  <rect x="1009" y="200" width="247" height="76" rx="12" fill="#211c17" stroke="rgba(255,255,255,0.07)" stroke-width="1"/>  <text x="1030" y="248" font-family="Arial,sans-serif" font-size="10" fill="#7a6040" letter-spacing="1">PAGES LUES</text>  <text x="1030" y="268" font-family="Georgia,serif" font-size="28" font-weight="bold" fill="#e8dfd0">1 283</text>  <rect x="295" y="292" width="961" height="90" rx="14" fill="#211c17" stroke="rgba(255,255,255,0.07)" stroke-width="1"/>  <text x="322" y="322" font-family="Georgia,serif" font-size="17" fill="#e8dfd0">Trouver un livre</text>  <rect x="322" y="336" width="820" height="34" rx="17" fill="#2a231b" stroke="rgba(255,255,255,0.07)" stroke-width="1"/>  <text x="346" y="358" font-family="Arial,sans-serif" font-size="13" fill="#7a6040">Dune, Camus, Le Petit Prince…</text>  <rect x="1092" y="334" width="120" height="36" rx="18" fill="#dbb96a"/>  <text x="1116" y="357" font-family="Arial,sans-serif" font-size="13" font-weight="bold" fill="#1a1410">🔍 Chercher</text>  <rect x="295" y="398" width="620" height="298" rx="14" fill="#211c17" stroke="rgba(255,255,255,0.07)" stroke-width="1"/>  <rect x="316" y="416" width="578" height="54" rx="10" fill="#2a231b"/>  <rect x="326" y="426" width="36" height="34" rx="4" fill="#3a2e1e"/>  <text x="337" y="448" font-family="Georgia,serif" font-size="11" font-weight="bold" fill="#c89b3c">Du</text>  <text x="374" y="440" font-family="Georgia,serif" font-size="14" font-weight="bold" fill="#e8dfd0">Dune</text>  <text x="374" y="456" font-family="Arial,sans-serif" font-size="11" fill="#7a6040">Frank Herbert · 1965</text>  <text x="536" y="439" font-family="Arial,sans-serif" font-size="12" fill="#dbb96a">★★★★★</text>  <rect x="374" y="462" width="500" height="4" rx="2" fill="rgba(255,255,255,0.06)"/>  <rect x="374" y="462" width="155" height="4" rx="2" fill="#dbb96a"/>  <rect x="316" y="480" width="578" height="54" rx="10" fill="#2a231b"/>  <rect x="326" y="490" width="36" height="34" rx="4" fill="#3a2e1e"/>  <text x="374" y="502" font-family="Georgia,serif" font-size="14" font-weight="bold" fill="#e8dfd0">Le Petit Prince</text>  <text x="374" y="518" font-family="Arial,sans-serif" font-size="11" fill="#7a6040">Antoine de Saint-Exupéry · 1943</text>  <text x="536" y="501" font-family="Arial,sans-serif" font-size="12" fill="#dbb96a">★★★★★</text>  <rect x="316" y="544" width="578" height="54" rx="10" fill="#2a231b"/>  <text x="374" y="566" font-family="Georgia,serif" font-size="14" font-weight="bold" fill="#e8dfd0">1984</text>  <text x="374" y="582" font-family="Arial,sans-serif" font-size="11" fill="#7a6040">George Orwell · 1949</text>  <text x="536" y="565" font-family="Arial,sans-serif" font-size="12" fill="#dbb96a">★★★★★</text>  <rect x="927" y="398" width="329" height="298" rx="14" fill="#211c17" stroke="rgba(255,255,255,0.07)" stroke-width="1"/>  <text x="952" y="428" font-family="Georgia,serif" font-size="16" fill="#e8dfd0">Mettre à jour</text>  <rect x="952" y="442" width="284" height="34" rx="8" fill="#2a231b" stroke="rgba(255,255,255,0.07)" stroke-width="1"/>  <text x="966" y="464" font-family="Arial,sans-serif" font-size="12" fill="#e8dfd0">Dune</text>  <text x="952" y="578" font-family="Arial,sans-serif" font-size="20" fill="#dbb96a">★★★★★</text>  <rect x="952" y="614" width="284" height="30" rx="8" fill="#2a231b" stroke="rgba(255,255,255,0.07)" stroke-width="1"/>  <text x="966" y="634" font-family="Arial,sans-serif" font-size="12" fill="#e8dfd0">SF, Favori</text>  <rect x="952" y="656" width="284" height="34" rx="17" fill="#dbb96a"/>  <text x="1060" y="678" font-family="Arial,sans-serif" font-size="13" font-weight="bold" fill="#1a1410">Enregistrer</text></svg>